# xmcd CD database file
#
# Track frame offsets:
#	150
#	22377
#	50394
#	70883
#	93167
#	117086
#	148369
#	173005
#	194379
#	224165
#
# Disc length: 3289 seconds
#
# Revision: 0
# Processed by: cddbd v1.5.2PL0 Copyright (c) Steve Scherf et al.
# Submitted via: Feurio! 1.68 - http://www.feurio.com
#
DISCID=9b0cd70a
DTITLE=Lucinda Williams - Paradiso 2006 Second Day Nov 2 2006 1
DYEAR=1900
DGENRE=
TTITLE0=Pineola
TTITLE1=Car Wheels on a Gravel Road
TTITLE2=Drunken Angel
TTITLE3=Are You Alright
TTITLE4=Over Time
TTITLE5=Out of Touch
TTITLE6=Those Three Days
TTITLE7=Rescue
TTITLE8=Righteously
TTITLE9=Come On
EXTD=
EXTT0=
EXTT1=
EXTT2=
EXTT3=
EXTT4=
EXTT5=
EXTT6=
EXTT7=
EXTT8=
EXTT9=
PLAYORDER=
